<?xml version="1.0" encoding="UTF-8"?>
<svg id="b" data-name="Layer 2" xmlns="http://www.w3.org/2000/svg" viewBox="0 0 1088.51 713.37">
  <g id="c" data-name="Layer 1">
    <path d="M1002.45,657.13c-1.68,29.1-24.64,56.22-55.21,56.22H57.81c-30.98.01-56.99-26.28-57.09-56.65l-.71-201.31L.72,90.65c.06-31.71,27.72-57.13,58.86-57.13l570.85-.1L664.45.09l136.41,136.55L937.29,0l151.23,150.59-136.41,136.86,135.95,136.9-85.29,85.8-.32,146.98ZM937.47,516.18l90.82-91.69-136.12-136.84,136.37-136.07-91.83-92.11-136.15,136.95-136.22-137.11-91.85,91.95,136.3,136.41-136.08,136.36,91.43,91.92,136.39-136.64,136.91,136.85ZM350.17,551.21c34.21-54.18,28.57-122.28-11.1-171.3-38.68-47.79-103.22-68.02-164.96-46.57-53.73,18.67-94.87,69.46-98.69,130.46-4.25,67.79,38.56,129.53,101.45,150.02,65.16,21.23,135.67-3.01,173.3-62.61Z"/>
  </g>
</svg>